<svg width="495" height="687" viewBox="0 0 495 687" fill="none" xmlns="http://www.w3.org/2000/svg">
<path fill-rule="evenodd" clipRule="evenodd" d="M7.70824 23.8512C2.44195 25.1735 2.60652 49.2289 7.87281 48.8221C11.8225 48.5678 12.3711 47.1946 12.2065 38.5998C11.9871 24.6649 11.4934 22.9358 7.70824 23.8512ZM6.99509 59.8072C4.96538 61.1804 6.11738 77.5563 8.69566 83.3541C10.3962 87.2192 12.8099 87.9821 14.7299 85.2358C16.2111 83.0998 15.3334 68.8598 13.194 61.0786C12.5905 58.9426 9.24424 58.2815 6.99509 59.8072ZM12.7002 98.5603C9.90252 101.713 14.6751 119.666 18.3505 119.666C21.0385 119.666 21.4774 118.903 21.4774 114.682C21.4774 102.985 16.65 94.1358 12.7002 98.5603ZM141.724 108.274C136.184 110.512 157.304 117.123 170.031 117.123C174.035 117.123 172.444 117.886 165.532 119.31C157.139 120.988 143.809 125.26 142.986 126.481C141.011 129.481 146.277 129.329 156.7 126.125C168.056 122.616 167.836 122.412 160.101 129.329C150.008 138.28 148.362 141.585 153.848 141.535C156.755 141.535 159.717 139.5 169.921 130.702C174.09 127.091 179.192 122.972 181.331 121.446C191.096 114.529 191.096 114.428 176.833 113.563C165.148 112.851 158.401 111.834 152.531 109.901C148.088 108.427 143.205 107.664 141.724 108.274ZM131.356 128.261C129.381 128.871 120.165 132.838 113.473 135.177C105.299 138.025 103.489 140.111 108.865 140.416C113.253 140.67 137.281 132.075 138.213 129.837C138.927 128.108 134.922 127.193 131.356 128.261ZM22.9037 130.499C17.4728 134.211 31.5162 152.723 39.7997 152.723C40.1837 152.723 42.4328 153.181 44.7368 153.74C54.4465 156.08 57.354 152.672 47.9185 149.977C39.4705 147.536 36.234 144.637 30.5288 134.16C28.1151 129.736 25.7014 128.566 22.9037 130.499ZM92.5174 141.484C89.994 142.043 83.5208 144.993 79.0774 146.315C67.8317 149.672 64.2111 152.672 71.3425 152.672C75.8408 152.672 97.4545 145.145 98.0579 143.315C98.7162 141.433 96.2477 140.619 92.5174 141.484Z" fill="black"/>
<path fill-rule="evenodd" clipRule="evenodd" d="M310.708 532.851C305.442 534.173 305.607 558.229 310.873 557.822C314.823 557.568 315.371 556.195 315.207 547.6C314.987 533.665 314.493 531.936 310.708 532.851ZM309.995 568.807C307.965 570.18 309.117 586.556 311.696 592.354C313.396 596.219 315.81 596.982 317.73 594.236C319.211 592.1 318.333 577.86 316.194 570.079C315.591 567.943 312.244 567.281 309.995 568.807ZM315.7 607.56C312.903 610.713 317.675 628.666 321.351 628.666C324.039 628.666 324.477 627.903 324.477 623.682C324.477 611.985 319.65 603.136 315.7 607.56ZM444.724 617.274C439.184 619.512 460.304 626.123 473.031 626.123C477.035 626.123 475.444 626.886 468.532 628.31C460.139 629.988 446.809 634.26 445.986 635.481C444.011 638.481 449.277 638.329 459.7 635.125C471.056 631.616 470.836 631.412 463.101 638.329C453.008 647.28 451.362 650.585 456.848 650.535C459.755 650.535 462.717 648.5 472.921 639.702C477.09 636.091 482.192 631.972 484.331 630.446C494.096 623.529 494.096 623.428 479.833 622.563C468.148 621.851 461.401 620.834 455.531 618.901C451.088 617.427 446.205 616.664 444.724 617.274ZM434.356 637.261C432.381 637.871 423.165 641.838 416.473 644.177C408.299 647.025 406.489 649.111 411.865 649.416C416.253 649.67 440.281 641.075 441.213 638.837C441.927 637.108 437.922 636.193 434.356 637.261ZM325.904 639.499C320.473 643.211 334.516 661.723 342.8 661.723C343.184 661.723 345.433 662.181 347.737 662.74C357.447 665.08 360.354 661.672 350.919 658.977C342.471 656.536 339.234 653.637 333.529 643.16C331.115 638.736 328.701 637.566 325.904 639.499ZM395.517 650.484C392.994 651.043 386.521 653.993 382.077 655.315C370.832 658.672 367.211 661.672 374.343 661.672C378.841 661.672 400.455 654.145 401.058 652.315C401.716 650.433 399.248 649.619 395.517 650.484Z" fill="black"/>
<g clipPath="url(#clip0_615_2120)">
<path fill-rule="evenodd" clipRule="evenodd" d="M186.851 115.708C188.173 110.442 212.229 110.607 211.822 115.873C211.568 119.823 210.195 120.371 201.6 120.207C187.665 119.987 185.936 119.493 186.851 115.708ZM222.807 114.995C224.18 112.965 240.556 114.117 246.354 116.696C250.219 118.396 250.982 120.81 248.236 122.73C246.1 124.211 231.86 123.333 224.079 121.194C221.943 120.591 221.281 117.244 222.807 114.995ZM261.56 120.7C264.713 117.903 282.666 122.675 282.666 126.351C282.666 129.039 281.903 129.477 277.682 129.477C265.985 129.477 257.136 124.65 261.56 120.7ZM271.274 249.724C273.512 244.184 280.123 265.304 280.123 278.031C280.123 282.035 280.886 280.444 282.31 273.532C283.988 265.139 288.26 251.809 289.481 250.986C292.481 249.011 292.329 254.277 289.125 264.7C285.616 276.056 285.412 275.836 292.329 268.101C301.28 258.008 304.585 256.362 304.535 261.848C304.535 264.755 302.5 267.717 293.702 277.921C290.091 282.09 285.972 287.192 284.446 289.331C277.529 299.096 277.428 299.096 276.563 284.833C275.851 273.148 274.834 266.401 272.901 260.531C271.427 256.088 270.664 251.205 271.274 249.724ZM291.261 239.356C291.871 237.381 295.838 228.165 298.177 221.473C301.025 213.299 303.111 211.489 303.416 216.865C303.67 221.253 295.075 245.281 292.837 246.213C291.108 246.927 290.193 242.922 291.261 239.356ZM293.499 130.904C297.211 125.473 315.723 139.516 315.723 147.8C315.723 148.184 316.181 150.433 316.74 152.737C319.08 162.447 315.672 165.354 312.977 155.919C310.536 147.471 307.637 144.234 297.16 138.529C292.736 136.115 291.566 133.701 293.499 130.904ZM304.484 200.517C305.043 197.994 307.993 191.521 309.315 187.077C312.672 175.832 315.672 172.211 315.672 179.343C315.672 183.841 308.145 205.455 306.315 206.058C304.433 206.716 303.619 204.248 304.484 200.517Z" fill="black"/>
</g>
<g clipPath="url(#clip1_615_2120)">
<path d="M292.051 465.463C293.829 466.205 294.802 464.053 295.406 458.006C295.707 455.15 296.311 450.29 296.781 447.211C297.955 439.606 297.586 437.455 295.54 439.495C293.225 441.832 290.139 464.647 292.051 465.463Z" fill="black"/>
<path d="M295.347 433.005C294.944 436.344 298.668 437.16 300.412 422.061C301.553 412.157 301.452 408.855 299.943 408.855C297.091 408.855 296.42 424.25 295.347 433.005Z" fill="black"/>
<path d="M296.448 501.039C296.582 501.447 294.67 499.592 292.187 496.921C286.82 491.171 285.143 489.762 284.337 490.504C283.365 491.394 282.727 493.954 283.163 495.104C283.331 495.512 284.941 497.441 286.753 499.407C290.644 503.562 296.482 510.499 298.763 513.652C301.916 518.029 302.688 518.809 303.258 518.401C304.667 517.436 304.768 516.509 304.667 503.08C304.6 492.878 304.701 489.354 305.137 485.83C306.143 477.594 306.21 476.852 306.043 475.851C304.935 469.47 301.682 484.16 301.548 496.143C301.514 498.554 301.379 500.372 301.245 500.223C300.776 499.667 297.488 487.351 295.878 480.228C294.066 472.327 293.831 471.547 292.892 471.547C289.135 471.547 290.678 484.271 296.448 501.039Z" fill="black"/>
<path d="M279.744 304.502C278.938 305.541 278.871 306.172 279.375 308.101C280.18 311.143 286.386 321.678 287.359 321.678C290.68 321.678 287.761 311.031 283.065 306.023C280.918 303.686 280.515 303.538 279.744 304.502Z" fill="black"/>
<path d="M290.813 337.074C295.073 349.909 294.704 349.204 296.18 347.832C298.328 345.828 296.214 333.995 292.926 329.617C290.477 326.279 288.968 331.509 290.813 337.074Z" fill="black"/>
<path d="M298.598 397.613C298.833 403.066 298.934 403.325 300.209 402.509C302.826 400.914 303.698 384.629 301.316 381.995C298.867 379.287 297.995 384.183 298.598 397.613Z" fill="black"/>
<path d="M296.781 361.554C296.848 361.74 297.452 365.005 298.09 368.752C299.431 376.69 299.8 377.358 301.209 374.316C302.786 370.903 300.203 353.95 298.09 353.95C296.882 353.95 295.943 359.329 296.781 361.554Z" fill="black"/>
</g>
<defs>
<clipPath id="clip0_615_2120">
<rect width="192" height="178" fill="white" transform="matrix(0 1 1 0 163 108)"/>
</clipPath>
<clipPath id="clip1_615_2120">
<rect width="222.58" height="201.284" fill="white" transform="matrix(0 -1 1 0 192 522.578)"/>
</clipPath>
</defs>
</svg>
